<svg width="119" height="24" viewBox="0 0 119 24" fill="none" xmlns="http://www.w3.org/2000/svg">
<path fill-rule="evenodd" clip-rule="evenodd" d="M9.03696 8.97335C9.43981 6.51099 10.1607 4.01158 10.5117 2.86899C10.9958 2.79073 11.4929 2.75 12 2.75C12.5071 2.75 13.0042 2.79073 13.4883 2.86899C13.8393 4.01158 14.5602 6.511 14.963 8.97335C13.9175 9.14214 12.8962 9.25 12 9.25C11.1038 9.25 10.0825 9.14214 9.03696 8.97335ZM16.4383 8.70082C16.1049 6.67591 15.5709 4.647 15.1856 3.31298C17.3675 4.11344 19.1653 5.71342 20.2225 7.75837C19.2361 8.04232 17.878 8.40427 16.4383 8.70082ZM16.6435 10.1899C18.2515 9.86269 19.7612 9.45519 20.8034 9.1518C21.0932 10.0483 21.25 11.0052 21.25 12C21.25 12.5071 21.2093 13.0042 21.131 13.4883C20.2243 13.7668 18.4586 14.2798 16.5337 14.6811C16.6657 13.7593 16.75 12.8424 16.75 12C16.75 11.4226 16.7104 10.8117 16.6435 10.1899ZM16.265 16.265C17.9522 15.9387 19.5648 15.5097 20.687 15.1855C19.7532 17.7313 17.7313 19.7532 15.1856 20.687C15.5097 19.5648 15.9387 17.9522 16.265 16.265ZM14.6811 16.5337C14.2798 18.4586 13.7668 20.2243 13.4883 21.131C13.0042 21.2093 12.5071 21.25 12 21.25C11.4929 21.25 10.9958 21.2093 10.5117 21.131C10.2332 20.2243 9.72025 18.4586 9.31893 16.5337C10.2407 16.6657 11.1576 16.75 12 16.75C12.8424 16.75 13.7593 16.6657 14.6811 16.5337ZM7.73495 16.265C8.0613 17.9522 8.49031 19.5648 8.81445 20.687C6.26873 19.7532 4.24683 17.7313 3.31296 15.1855C4.4352 15.5097 6.04784 15.9387 7.73495 16.265ZM7.46634 14.6811C5.54141 14.2798 3.77568 13.7668 2.86899 13.4883C2.79073 13.0042 2.75 12.5071 2.75 12C2.75 11.0052 2.90677 10.0483 3.19658 9.1518C4.23878 9.4552 5.74846 9.86269 7.35654 10.1899C7.28957 10.8117 7.25 11.4226 7.25 12C7.25 12.8424 7.33431 13.7593 7.46634 14.6811ZM7.56166 8.70082C6.12204 8.40427 4.76388 8.04232 3.77748 7.75837C4.83467 5.71342 6.63247 4.11343 8.81443 3.31298C8.42911 4.647 7.89509 6.67591 7.56166 8.70082ZM8.75 12C8.75 11.5192 8.78109 11.0009 8.83638 10.4604C9.91915 10.6338 11.0112 10.75 12 10.75C12.9888 10.75 14.0809 10.6338 15.1636 10.4604C15.2189 11.0009 15.25 11.5192 15.25 12C15.25 12.8981 15.1416 13.9226 14.9719 14.9719C13.9226 15.1416 12.8981 15.25 12 15.25C11.1019 15.25 10.0774 15.1416 9.02808 14.9719C8.85836 13.9226 8.75 12.8981 8.75 12ZM12 1.25C11.2383 1.25 10.4943 1.32934 9.77616 1.48045C6.25736 2.22088 3.37486 4.6799 2.04429 7.93761C1.53198 9.19193 1.25 10.564 1.25 12C1.25 12.7617 1.32934 13.5057 1.48045 14.2238C2.35435 18.377 5.62304 21.6456 9.77616 22.5195C10.4943 22.6707 11.2383 22.75 12 22.75C12.7617 22.75 13.5057 22.6707 14.2238 22.5195C18.377 21.6456 21.6456 18.377 22.5195 14.2238C22.6707 13.5057 22.75 12.7617 22.75 12C22.75 10.5651 22.4685 9.19407 21.9569 7.94055C20.6269 4.68138 17.7437 2.22111 14.2238 1.48046C13.5057 1.32934 12.7617 1.25 12 1.25Z" fill="#2D264B"/>
<path d="M37.3633 15.2324C37.75 15.2324 38.0879 15.1152 38.377 14.8809C38.666 14.6465 38.8262 14.3535 38.8574 14.002H39.8828C39.8633 14.3652 39.7383 14.7109 39.5078 15.0391C39.2773 15.3672 38.9688 15.6289 38.582 15.8242C38.1992 16.0195 37.793 16.1172 37.3633 16.1172C36.5 16.1172 35.8125 15.8301 35.3008 15.2559C34.793 14.6777 34.5391 13.8887 34.5391 12.8887V12.707C34.5391 12.0898 34.6523 11.541 34.8789 11.0605C35.1055 10.5801 35.4297 10.207 35.8516 9.94141C36.2773 9.67578 36.7793 9.54297 37.3574 9.54297C38.0684 9.54297 38.6582 9.75586 39.127 10.1816C39.5996 10.6074 39.8516 11.1602 39.8828 11.8398H38.8574C38.8262 11.4297 38.6699 11.0938 38.3887 10.832C38.1113 10.5664 37.7676 10.4336 37.3574 10.4336C36.8066 10.4336 36.3789 10.6328 36.0742 11.0312C35.7734 11.4258 35.623 11.998 35.623 12.748V12.9531C35.623 13.6836 35.7734 14.2461 36.0742 14.6406C36.375 15.0352 36.8047 15.2324 37.3633 15.2324ZM40.8145 12.7715C40.8145 12.1504 40.9355 11.5918 41.1777 11.0957C41.4238 10.5996 41.7637 10.2168 42.1973 9.94727C42.6348 9.67773 43.1328 9.54297 43.6914 9.54297C44.5547 9.54297 45.252 9.8418 45.7832 10.4395C46.3184 11.0371 46.5859 11.832 46.5859 12.8242V12.9004C46.5859 13.5176 46.4668 14.0723 46.2285 14.5645C45.9941 15.0527 45.6562 15.4336 45.2148 15.707C44.7773 15.9805 44.2734 16.1172 43.7031 16.1172C42.8438 16.1172 42.1465 15.8184 41.6113 15.2207C41.0801 14.623 40.8145 13.832 40.8145 12.8477V12.7715ZM41.9043 12.9004C41.9043 13.6035 42.0664 14.168 42.3906 14.5938C42.7188 15.0195 43.1562 15.2324 43.7031 15.2324C44.2539 15.2324 44.6914 15.0176 45.0156 14.5879C45.3398 14.1543 45.502 13.5488 45.502 12.7715C45.502 12.0762 45.3359 11.5137 45.0039 11.084C44.6758 10.6504 44.2383 10.4336 43.6914 10.4336C43.1562 10.4336 42.7246 10.6465 42.3965 11.0723C42.0684 11.498 41.9043 12.1074 41.9043 12.9004ZM48.9707 9.66016L49.0059 10.457C49.4902 9.84766 50.123 9.54297 50.9043 9.54297C52.2441 9.54297 52.9199 10.2988 52.9316 11.8105V16H51.8477V11.8047C51.8438 11.3477 51.7383 11.0098 51.5312 10.791C51.3281 10.5723 51.0098 10.4629 50.5762 10.4629C50.2246 10.4629 49.916 10.5566 49.6504 10.7441C49.3848 10.9316 49.1777 11.1777 49.0293 11.4824V16H47.9453V9.66016H48.9707ZM58.2578 14.3184C58.2578 14.0254 58.1465 13.7988 57.9238 13.6387C57.7051 13.4746 57.3203 13.334 56.7695 13.2168C56.2227 13.0996 55.7871 12.959 55.4629 12.7949C55.1426 12.6309 54.9043 12.4355 54.748 12.209C54.5957 11.9824 54.5195 11.7129 54.5195 11.4004C54.5195 10.8809 54.7383 10.4414 55.1758 10.082C55.6172 9.72266 56.1797 9.54297 56.8633 9.54297C57.582 9.54297 58.1641 9.72852 58.6094 10.0996C59.0586 10.4707 59.2832 10.9453 59.2832 11.5234H58.1934C58.1934 11.2266 58.0664 10.9707 57.8125 10.7559C57.5625 10.541 57.2461 10.4336 56.8633 10.4336C56.4688 10.4336 56.1602 10.5195 55.9375 10.6914C55.7148 10.8633 55.6035 11.0879 55.6035 11.3652C55.6035 11.627 55.707 11.8242 55.9141 11.957C56.1211 12.0898 56.4941 12.2168 57.0332 12.3379C57.5762 12.459 58.0156 12.6035 58.3516 12.7715C58.6875 12.9395 58.9355 13.1426 59.0957 13.3809C59.2598 13.6152 59.3418 13.9023 59.3418 14.2422C59.3418 14.8086 59.1152 15.2637 58.6621 15.6074C58.209 15.9473 57.6211 16.1172 56.8984 16.1172C56.3906 16.1172 55.9414 16.0273 55.5508 15.8477C55.1602 15.668 54.8535 15.418 54.6309 15.0977C54.4121 14.7734 54.3027 14.4238 54.3027 14.0488H55.3867C55.4062 14.4121 55.5508 14.7012 55.8203 14.916C56.0938 15.127 56.4531 15.2324 56.8984 15.2324C57.3086 15.2324 57.6367 15.1504 57.8828 14.9863C58.1328 14.8184 58.2578 14.5957 58.2578 14.3184ZM64.668 15.373C64.2461 15.8691 63.627 16.1172 62.8105 16.1172C62.1348 16.1172 61.6191 15.9219 61.2637 15.5312C60.9121 15.1367 60.7344 14.5547 60.7305 13.7852V9.66016H61.8145V13.7559C61.8145 14.7168 62.2051 15.1973 62.9863 15.1973C63.8145 15.1973 64.3652 14.8887 64.6387 14.2715V9.66016H65.7227V16H64.6914L64.668 15.373ZM68.5527 16H67.4688V7H68.5527V16ZM71.7637 8.125V9.66016H72.9473V10.498H71.7637V14.4297C71.7637 14.6836 71.8164 14.875 71.9219 15.0039C72.0273 15.1289 72.207 15.1914 72.4609 15.1914C72.5859 15.1914 72.7578 15.168 72.9766 15.1211V16C72.6914 16.0781 72.4141 16.1172 72.1445 16.1172C71.6602 16.1172 71.2949 15.9707 71.0488 15.6777C70.8027 15.3848 70.6797 14.9688 70.6797 14.4297V10.498H69.5254V9.66016H70.6797V8.125H71.7637Z" fill="#2D264B"/>
<path d="M78.7891 16.8848H73.4219V16H78.7891V16.8848ZM79.375 12.7773C79.375 11.7891 79.6035 11.0039 80.0605 10.4219C80.5176 9.83594 81.123 9.54297 81.877 9.54297C82.6504 9.54297 83.2539 9.81641 83.6875 10.3633L83.7402 9.66016H84.7305V15.8477C84.7305 16.668 84.4863 17.3145 83.998 17.7871C83.5137 18.2598 82.8613 18.4961 82.041 18.4961C81.584 18.4961 81.1367 18.3984 80.6992 18.2031C80.2617 18.0078 79.9277 17.7402 79.6973 17.4004L80.2598 16.75C80.7246 17.3242 81.293 17.6113 81.9648 17.6113C82.4922 17.6113 82.9023 17.4629 83.1953 17.166C83.4922 16.8691 83.6406 16.4512 83.6406 15.9121V15.3672C83.207 15.8672 82.6152 16.1172 81.8652 16.1172C81.123 16.1172 80.5215 15.8184 80.0605 15.2207C79.6035 14.623 79.375 13.8086 79.375 12.7773ZM80.4648 12.9004C80.4648 13.6152 80.6113 14.1777 80.9043 14.5879C81.1973 14.9941 81.6074 15.1973 82.1348 15.1973C82.8184 15.1973 83.3203 14.8867 83.6406 14.2656V11.3711C83.3086 10.7656 82.8105 10.4629 82.1465 10.4629C81.6191 10.4629 81.207 10.668 80.9102 11.0781C80.6133 11.4883 80.4648 12.0957 80.4648 12.9004ZM87.5488 16H86.4648V9.66016H87.5488V16ZM86.377 7.97852C86.377 7.80273 86.4297 7.6543 86.5352 7.5332C86.6445 7.41211 86.8047 7.35156 87.0156 7.35156C87.2266 7.35156 87.3867 7.41211 87.4961 7.5332C87.6055 7.6543 87.6602 7.80273 87.6602 7.97852C87.6602 8.1543 87.6055 8.30078 87.4961 8.41797C87.3867 8.53516 87.2266 8.59375 87.0156 8.59375C86.8047 8.59375 86.6445 8.53516 86.5352 8.41797C86.4297 8.30078 86.377 8.1543 86.377 7.97852ZM90.7598 8.125V9.66016H91.9434V10.498H90.7598V14.4297C90.7598 14.6836 90.8125 14.875 90.918 15.0039C91.0234 15.1289 91.2031 15.1914 91.457 15.1914C91.582 15.1914 91.7539 15.168 91.9727 15.1211V16C91.6875 16.0781 91.4102 16.1172 91.1406 16.1172C90.6562 16.1172 90.291 15.9707 90.0449 15.6777C89.7988 15.3848 89.6758 14.9688 89.6758 14.4297V10.498H88.5215V9.66016H89.6758V8.125H90.7598ZM94.2988 10.4277C94.7793 9.83789 95.4043 9.54297 96.1738 9.54297C97.5137 9.54297 98.1895 10.2988 98.2012 11.8105V16H97.1172V11.8047C97.1133 11.3477 97.0078 11.0098 96.8008 10.791C96.5977 10.5723 96.2793 10.4629 95.8457 10.4629C95.4941 10.4629 95.1855 10.5566 94.9199 10.7441C94.6543 10.9316 94.4473 11.1777 94.2988 11.4824V16H93.2148V7H94.2988V10.4277ZM103.738 15.373C103.316 15.8691 102.697 16.1172 101.881 16.1172C101.205 16.1172 100.689 15.9219 100.334 15.5312C99.9824 15.1367 99.8047 14.5547 99.8008 13.7852V9.66016H100.885V13.7559C100.885 14.7168 101.275 15.1973 102.057 15.1973C102.885 15.1973 103.436 14.8887 103.709 14.2715V9.66016H104.793V16H103.762L103.738 15.373ZM111.812 12.9004C111.812 13.8691 111.59 14.6484 111.145 15.2383C110.699 15.8242 110.102 16.1172 109.352 16.1172C108.551 16.1172 107.932 15.834 107.494 15.2676L107.441 16H106.445V7H107.529V10.3574C107.967 9.81445 108.57 9.54297 109.34 9.54297C110.109 9.54297 110.713 9.83398 111.15 10.416C111.592 10.998 111.812 11.7949 111.812 12.8066V12.9004ZM110.729 12.7773C110.729 12.0391 110.586 11.4688 110.301 11.0664C110.016 10.6641 109.605 10.4629 109.07 10.4629C108.355 10.4629 107.842 10.7949 107.529 11.459V14.2012C107.861 14.8652 108.379 15.1973 109.082 15.1973C109.602 15.1973 110.006 14.9961 110.295 14.5938C110.584 14.1914 110.729 13.5859 110.729 12.7773Z" fill="#2D264B" fill-opacity="0.5"/>
</svg>
